<svg width="40" height="40" viewBox="0 0 40 40" fill="none" xmlns="http://www.w3.org/2000/svg">
<g clip-path="url(#clip0_151_503)">
<path d="M33.75 30H6.25C4.87083 30 3.75 28.8792 3.75 27.5V8.75C3.75 7.37083 4.87083 6.25 6.25 6.25H33.75C35.1292 6.25 36.25 7.37083 36.25 8.75V27.5C36.25 28.8792 35.1292 30 33.75 30ZM6.25 8.75V27.5H33.75V8.75H6.25Z" fill="white"/>
<path d="M30 36.25C29.6333 36.25 29.2708 36.0896 29.0229 35.7812L24.0229 29.5312C23.5916 28.9916 23.6791 28.2062 24.2187 27.775C24.7583 27.3437 25.5437 27.4312 25.975 27.9708L30.975 34.2208C31.4062 34.7604 31.3187 35.5458 30.7791 35.9771C30.5479 36.1604 30.2729 36.25 30 36.25Z" fill="white"/>
<path d="M9.99985 36.25C9.72693 36.25 9.44985 36.1604 9.22068 35.9771C8.6811 35.5458 8.5936 34.7583 9.02485 34.2208L14.0248 27.9708C14.4561 27.4312 15.2436 27.3437 15.7811 27.775C16.3207 28.2062 16.4082 28.9937 15.9769 29.5312L10.9769 35.7812C10.729 36.0896 10.3665 36.25 9.99985 36.25Z" fill="white"/>
<path d="M15 23.75C14.3104 23.75 13.75 23.1896 13.75 22.5V18.75C13.75 18.0604 14.3104 17.5 15 17.5C15.6896 17.5 16.25 18.0604 16.25 18.75V22.5C16.25 23.1896 15.6896 23.75 15 23.75Z" fill="white"/>
<path d="M20 23.75C19.3104 23.75 18.75 23.1896 18.75 22.5V16.25C18.75 15.5604 19.3104 15 20 15C20.6896 15 21.25 15.5604 21.25 16.25V22.5C21.25 23.1896 20.6896 23.75 20 23.75Z" fill="white"/>
<path d="M25 23.75C24.3104 23.75 23.75 23.1896 23.75 22.5V13.75C23.75 13.0604 24.3104 12.5 25 12.5C25.6896 12.5 26.25 13.0604 26.25 13.75V22.5C26.25 23.1896 25.6896 23.75 25 23.75Z" fill="white"/>
<path d="M20.25 9.25C19.5604 9.25 19 8.68958 19 8V4.25C19 3.56042 19.5604 3 20.25 3C20.9396 3 21.5 3.56042 21.5 4.25V8C21.5 8.68958 20.9396 9.25 20.25 9.25Z" fill="white"/>
</g>
<defs>
<clipPath id="clip0_151_503">
<rect width="40" height="40" fill="white"/>
</clipPath>
</defs>
</svg>
