<svg width="32" height="32" viewBox="0 0 32 32" fill="none" xmlns="http://www.w3.org/2000/svg">
<g clip-path="url(#clip0_151_482)">
<path d="M16 22C12.6917 22 10 19.3083 10 16C10 12.6917 12.6917 10 16 10C19.3083 10 22 12.6917 22 16C22 19.3083 19.3083 22 16 22ZM16 12C13.795 12 12 13.795 12 16C12 18.205 13.795 20 16 20C18.205 20 20 18.205 20 16C20 13.795 18.205 12 16 12Z" fill="white"/>
<path d="M16.0268 29.0066C15.1635 29.0066 14.2935 28.92 13.4268 28.745C10.0235 28.0583 7.09014 26.085 5.17014 23.1933C1.20514 17.2216 2.83847 9.13831 8.81014 5.17331C14.7818 1.20831 22.8668 2.84164 26.8318 8.81331C28.2501 10.95 29.0001 13.4366 29.0018 16.0016C29.0018 19.7583 27.3201 22.0016 24.5018 22.0016C21.6835 22.0016 20.0018 19.7583 20.0018 16.0016V11.0016C20.0018 10.45 20.4501 10.0016 21.0018 10.0016C21.5535 10.0016 22.0018 10.45 22.0018 11.0016V16.0016C22.0018 17.8266 22.4351 20.0016 24.5018 20.0016C26.5685 20.0016 27.0018 17.8266 27.0018 16.0016C27.0018 13.8316 26.3668 11.7283 25.1651 9.91998C21.8101 4.86664 14.9701 3.48498 9.9168 6.83998C4.86347 10.195 3.4818 17.035 6.8368 22.0883C8.4618 24.5366 10.9435 26.205 13.8235 26.7866C16.7035 27.3683 19.6385 26.7933 22.0851 25.1683C22.5451 24.8633 23.1651 24.9883 23.4718 25.4483C23.7768 25.9083 23.6518 26.5283 23.1918 26.835C21.0351 28.2666 18.5585 29.0083 16.0285 29.0083L16.0268 29.0066Z" fill="white"/>
</g>
<defs>
<clipPath id="clip0_151_482">
<rect width="32" height="32" fill="white"/>
</clipPath>
</defs>
</svg>
