<svg width="40" height="40" viewBox="0 0 40 40" fill="none" xmlns="http://www.w3.org/2000/svg">
<g clip-path="url(#clip0_151_581)">
<path d="M20 36.25C11.0396 36.25 3.75 28.9604 3.75 20C3.75 11.0396 11.0396 3.75 20 3.75C28.9604 3.75 36.25 11.0396 36.25 20C36.25 28.9604 28.9604 36.25 20 36.25ZM20 6.25C12.4187 6.25 6.25 12.4187 6.25 20C6.25 27.5812 12.4187 33.75 20 33.75C27.5812 33.75 33.75 27.5812 33.75 20C33.75 12.4187 27.5812 6.25 20 6.25Z" fill="white"/>
<path d="M21.25 28.75H20C19.3104 28.75 18.75 28.1896 18.75 27.5V20C18.0604 20 17.5 19.4396 17.5 18.75C17.5 18.0604 18.0604 17.5 18.75 17.5H20C20.6896 17.5 21.25 18.0604 21.25 18.75V26.25C21.9396 26.25 22.5 26.8104 22.5 27.5C22.5 28.1896 21.9396 28.75 21.25 28.75Z" fill="white"/>
<path d="M19.6875 15C20.723 15 21.5625 14.1605 21.5625 13.125C21.5625 12.0895 20.723 11.25 19.6875 11.25C18.652 11.25 17.8125 12.0895 17.8125 13.125C17.8125 14.1605 18.652 15 19.6875 15Z" fill="white"/>
</g>
<defs>
<clipPath id="clip0_151_581">
<rect width="40" height="40" fill="white"/>
</clipPath>
</defs>
</svg>
