<svg width="32" height="32" viewBox="0 0 32 32" fill="none" xmlns="http://www.w3.org/2000/svg">
<g clip-path="url(#clip0_151_487)">
<path d="M16 22C12.6917 22 10 19.3083 10 16C10 12.6917 12.6917 10 16 10C19.3083 10 22 12.6917 22 16C22 19.3083 19.3083 22 16 22ZM16 12C13.795 12 12 13.795 12 16C12 18.205 13.795 20 16 20C18.205 20 20 18.205 20 16C20 13.795 18.205 12 16 12Z" fill="white"/>
<path d="M21.5 28.5H10.5C6.64 28.5 3.5 25.36 3.5 21.5V10.5C3.5 6.64 6.64 3.5 10.5 3.5H21.5C25.36 3.5 28.5 6.64 28.5 10.5V21.5C28.5 25.36 25.36 28.5 21.5 28.5ZM10.5 5.5C7.74333 5.5 5.5 7.74333 5.5 10.5V21.5C5.5 24.2567 7.74333 26.5 10.5 26.5H21.5C24.2567 26.5 26.5 24.2567 26.5 21.5V10.5C26.5 7.74333 24.2567 5.5 21.5 5.5H10.5Z" fill="white"/>
<path d="M22.5 11C23.3284 11 24 10.3284 24 9.5C24 8.67157 23.3284 8 22.5 8C21.6716 8 21 8.67157 21 9.5C21 10.3284 21.6716 11 22.5 11Z" fill="white"/>
</g>
<defs>
<clipPath id="clip0_151_487">
<rect width="32" height="32" fill="white"/>
</clipPath>
</defs>
</svg>
