<svg width="32" height="32" viewBox="0 0 32 32" fill="none" xmlns="http://www.w3.org/2000/svg">
<g clip-path="url(#clip0_151_475)">
<path d="M4.9998 29.84C4.42313 29.84 3.85313 29.5933 3.4598 29.1167C3.16813 28.7633 3.0048 28.3167 3.00146 27.8567V8C3.00146 6.89667 3.89813 6 5.00146 6H27.0015C28.1048 6 29.0015 6.89667 29.0015 8V24C29.0015 25.1033 28.1048 26 27.0015 26H10.3831L10.2531 26.045L6.2798 29.3783C5.9048 29.6883 5.4498 29.84 4.9998 29.84ZM4.9998 8V27.85L9.10646 24.3967C9.19813 24.32 9.3048 24.2583 9.41813 24.22L9.8798 24.0583C9.98646 24.0217 10.0981 24.0017 10.2115 24.0017H26.9998V8H4.9998Z" fill="white"/>
<path d="M20 15H12C11.4483 15 11 14.5517 11 14C11 13.4483 11.4483 13 12 13H20C20.5517 13 21 13.4483 21 14C21 14.5517 20.5517 15 20 15Z" fill="white"/>
<path d="M20 19H12C11.4483 19 11 18.5517 11 18C11 17.4483 11.4483 17 12 17H20C20.5517 17 21 17.4483 21 18C21 18.5517 20.5517 19 20 19Z" fill="white"/>
</g>
<defs>
<clipPath id="clip0_151_475">
<rect width="32" height="32" fill="white"/>
</clipPath>
</defs>
</svg>
