<svg width="40" height="40" viewBox="0 0 40 40" fill="none" xmlns="http://www.w3.org/2000/svg">
<g clip-path="url(#clip0_151_541)">
<path d="M36.25 31.25H3.75C2.37083 31.25 1.25 30.1292 1.25 28.75V11.25C1.25 9.87083 2.37083 8.75 3.75 8.75H36.25C37.6292 8.75 38.75 9.87083 38.75 11.25V28.75C38.75 30.1292 37.6292 31.25 36.25 31.25ZM3.75 11.25V28.75H36.25V11.25H3.75Z" fill="white"/>
<path d="M20 26.25C16.5542 26.25 13.75 23.4458 13.75 20C13.75 16.5542 16.5542 13.75 20 13.75C23.4458 13.75 26.25 16.5542 26.25 20C26.25 23.4458 23.4458 26.25 20 26.25ZM20 16.25C17.9312 16.25 16.25 17.9312 16.25 20C16.25 22.0687 17.9312 23.75 20 23.75C22.0687 23.75 23.75 22.0667 23.75 20C23.75 17.9333 22.0667 16.25 20 16.25Z" fill="white"/>
<path d="M37.5002 20C37.2085 20 36.9147 19.8979 36.6772 19.6916L26.6772 10.9416C26.1585 10.4875 26.1043 9.6979 26.5606 9.17707C27.0147 8.65832 27.8043 8.60415 28.3252 9.0604L38.3252 17.8104C38.8439 18.2646 38.8981 19.0541 38.4418 19.575C38.1939 19.8583 37.8481 20.0021 37.5002 20.0021V20Z" fill="white"/>
<path d="M27.4999 31.25C27.152 31.25 26.8062 31.1063 26.5583 30.8229C26.1041 30.3042 26.1562 29.5146 26.6749 29.0583L36.6749 20.3083C37.1937 19.8542 37.9833 19.9063 38.4395 20.425C38.8937 20.9438 38.8416 21.7333 38.3229 22.1896L28.3229 30.9396C28.0854 31.1479 27.7916 31.2479 27.4999 31.2479V31.25Z" fill="white"/>
<path d="M2.49994 20C2.15202 20 1.80619 19.8563 1.55827 19.5729C1.10411 19.0542 1.15619 18.2646 1.67494 17.8083L11.6749 9.05834C12.1937 8.60417 12.9833 8.65625 13.4395 9.175C13.8937 9.69375 13.8416 10.4833 13.3229 10.9396L3.32286 19.6917C3.08536 19.9 2.79161 20 2.49994 20Z" fill="white"/>
<path d="M12.5002 31.25C12.2085 31.25 11.9147 31.1479 11.6772 30.9416L1.67725 22.1916C1.1585 21.7375 1.10433 20.9479 1.56058 20.4271C2.01475 19.9083 2.80433 19.8541 3.32517 20.3104L13.3252 29.0604C13.8439 29.5146 13.8981 30.3042 13.4418 30.825C13.1939 31.1083 12.8481 31.2521 12.5002 31.2521V31.25Z" fill="white"/>
</g>
<defs>
<clipPath id="clip0_151_541">
<rect width="40" height="40" fill="white"/>
</clipPath>
</defs>
</svg>
