<?xml version="1.0" standalone="no"?>
<!DOCTYPE svg PUBLIC "-//W3C//DTD SVG 20010904//EN"
 "http://www.w3.org/TR/2001/REC-SVG-20010904/DTD/svg10.dtd">
<svg version="1.0" xmlns="http://www.w3.org/2000/svg"
 width="302.000000pt" height="302.000000pt" viewBox="0 0 302.000000 302.000000"
 preserveAspectRatio="xMidYMid meet">
<metadata>
Created by potrace 1.14, written by Peter Selinger 2001-2017
</metadata>
<g transform="translate(0.000000,302.000000) scale(0.100000,-0.100000)"
fill="#000000" stroke="none">
<path d="M500 3008 c-70 -20 -92 -56 -143 -243 -31 -111 -77 -293 -92 -360 -3
-11 -16 -65 -29 -120 -13 -55 -23 -101 -21 -103 2 -2 168 -4 370 -4 l367 0 -7
-36 c-3 -20 -44 -185 -91 -365 -47 -181 -87 -336 -89 -345 -2 -10 -27 -102
-54 -207 -28 -104 -65 -244 -82 -310 -17 -66 -39 -149 -49 -185 -10 -36 -29
-108 -43 -160 -14 -52 -49 -178 -77 -279 -56 -204 -61 -258 -23 -277 16 -7
139 -10 392 -9 407 2 403 1 436 65 13 25 51 163 170 615 31 119 83 311 140
520 26 94 55 202 65 240 10 39 48 178 85 310 37 132 69 251 71 265 15 78 85
146 163 155 24 3 148 6 275 7 127 1 247 5 266 11 46 12 99 52 112 85 16 42 63
202 107 367 65 242 91 339 97 358 5 16 -51 17 -1138 16 -718 -1 -1156 -5
-1178 -11z"/>
</g>
</svg>
