<svg width="32" height="32" viewBox="0 0 32 32" fill="none" xmlns="http://www.w3.org/2000/svg">
<g clip-path="url(#clip0_151_434)">
<path d="M22.8999 27.6666C22.5066 27.6666 22.1133 27.5283 21.7966 27.2483L10.6949 17.4799L4.20827 16.1783C3.47327 16.0283 2.93827 15.4249 2.87494 14.6799C2.8116 13.9399 3.2316 13.2616 3.9216 12.9916L26.9933 3.92992C27.3049 3.80992 27.6383 3.78492 27.9616 3.85658C28.8583 4.05658 29.4249 4.94825 29.2249 5.84659L24.5233 26.3749C24.4616 26.6466 24.3299 26.8999 24.1466 27.1066C23.8183 27.4783 23.3583 27.6683 22.8983 27.6683L22.8999 27.6666ZM27.5999 5.14825C27.5583 5.14825 27.5183 5.15659 27.4799 5.17159L4.4066 14.2333C4.20994 14.3099 4.19327 14.4749 4.2016 14.5666C4.20827 14.6433 4.24827 14.8266 4.4716 14.8716L11.1316 16.2083C11.2466 16.2316 11.3533 16.2849 11.4399 16.3616L22.6783 26.2499C22.8166 26.3733 23.0283 26.3599 23.1499 26.2233C23.1866 26.1816 23.2133 26.1316 23.2249 26.0766L27.9249 5.55159C27.9649 5.37659 27.8499 5.19825 27.6716 5.15825C27.6483 5.15325 27.6233 5.14992 27.5983 5.14992L27.5999 5.14825Z" fill="white"/>
<path d="M11.0002 17.5283C10.7935 17.5283 10.5902 17.4316 10.4585 17.2516C10.2435 16.9533 10.3102 16.5366 10.6085 16.3216L27.6219 4.03495C27.9202 3.81995 28.3369 3.88662 28.5519 4.18495C28.7669 4.48328 28.7002 4.89995 28.4019 5.11495L11.3885 17.4016C11.2702 17.4866 11.1335 17.5283 10.9985 17.5283H11.0002Z" fill="white"/>
<path d="M12.0016 26.6651C11.5783 26.6651 11.155 26.5051 10.8316 26.1868C10.5166 25.8768 10.335 25.4451 10.335 25.0018V16.8634C10.335 16.4951 10.6333 16.1968 11.0016 16.1968C11.37 16.1968 11.6683 16.4951 11.6683 16.8634V25.0018C11.6683 25.0884 11.705 25.1751 11.7683 25.2368C11.9 25.3668 12.1116 25.3634 12.24 25.2334L16.1433 21.3301C16.4033 21.0701 16.825 21.0701 17.0866 21.3301C17.3466 21.5901 17.3466 22.0118 17.0866 22.2734L13.1866 26.1734C12.8633 26.5018 12.4333 26.6668 12.0033 26.6668L12.0016 26.6651Z" fill="white"/>
</g>
<defs>
<clipPath id="clip0_151_434">
<rect width="32" height="32" fill="white"/>
</clipPath>
</defs>
</svg>
