<svg width="245" height="30" viewBox="0 0 245 30" fill="none" xmlns="http://www.w3.org/2000/svg">
<g clip-path="url(#clip0_151_284)">
<path d="M145.184 20.9183C144.547 23.2026 143.976 25.0721 143.51 26.9691C142.943 29.2747 142.982 29.2869 140.695 29.2869C139.222 29.2869 137.749 29.2625 136.276 29.296C134.589 29.3326 134.434 29.1802 134.879 27.5119C135.739 24.2822 136.623 21.0586 137.493 17.832C138.969 12.3546 140.481 6.88331 141.875 1.38458C142.15 0.304959 142.604 0.0121818 143.629 0.0182813C149.063 0.048779 154.498 -0.00306704 159.933 0.0365799C162.754 0.0579283 165.239 2.25681 165.401 4.9833C165.666 9.46341 164.489 13.5867 161.415 16.9079C160.223 18.1979 158.46 18.9634 156.941 19.9424C156.581 20.1742 156.154 20.3053 155.566 20.5676C157.609 23.4069 159.539 26.0877 161.692 29.0856C160.778 29.171 160.259 29.2533 159.744 29.2564C157.408 29.2716 155.068 29.2107 152.735 29.2838C151.634 29.3174 150.954 28.9087 150.341 28.0304C148.752 25.7522 147.087 23.532 145.181 20.9183H145.184ZM147.493 12.2356C150.018 12.2356 152.333 12.3332 154.632 12.193C155.73 12.1259 156.712 10.5125 156.572 9.42681C156.395 8.05442 155.318 8.18556 154.364 8.17641C152.793 8.15811 151.22 8.12761 149.652 8.19471C149.216 8.21301 148.533 8.46309 148.414 8.77721C148.011 9.83853 147.81 10.9791 147.496 12.2356H147.493Z" fill="white"/>
<path d="M193.2 0.149451C192.517 2.74175 191.949 5.15107 191.196 7.50244C191.08 7.86536 190.107 8.12459 189.525 8.13374C185.56 8.19474 181.595 8.17339 177.634 8.18559C177.176 8.18559 176.655 8.10324 176.283 8.29843C175.816 8.53936 175.478 9.02427 175.081 9.40549C175.511 9.67692 175.932 10.1679 176.368 10.1832C178.753 10.2655 181.15 10.1222 183.532 10.2777C185.13 10.3814 186.771 10.665 188.274 11.1988C190.348 11.9338 191.471 13.5044 191.55 15.8283C191.748 21.4826 188.75 26.6672 183.907 28.3262C182.029 28.9697 179.939 29.168 177.936 29.2381C173.873 29.3815 169.805 29.2839 165.74 29.3235C164.541 29.3357 164.242 29.0216 164.675 27.7895C165.328 25.9291 165.801 23.9986 166.215 22.0681C166.426 21.0983 166.905 20.8787 167.789 20.8848C171.601 20.9153 175.414 20.9336 179.226 20.8848C180.473 20.8696 182.477 21.3087 182.477 19.6436C182.477 18.2254 180.51 18.8323 179.397 18.7622C176.865 18.6005 174.316 18.6829 171.79 18.4633C167.414 18.0851 165.346 15.0506 166.197 10.6864C166.957 6.78574 168.423 3.32121 172.132 1.43035C173.657 0.652663 175.478 0.146402 177.185 0.088456C182.108 -0.0792812 187.042 0.0427095 191.971 0.0549085C192.267 0.0549085 192.559 0.0976053 193.203 0.149451H193.2Z" fill="white"/>
<path d="M90.8524 0.189112C90.1875 2.68992 89.6233 5.05044 88.8853 7.35302C88.7602 7.74644 87.891 8.11851 87.3604 8.12766C83.4994 8.19475 79.6384 8.15815 75.7774 8.1734C75.0698 8.1734 74.3287 8.1551 73.6639 8.35334C73.2857 8.46618 73.0387 9.00904 72.7306 9.35671C73.0875 9.63729 73.4382 10.1497 73.8042 10.1618C76.0884 10.2472 78.3788 10.1405 80.66 10.2533C82.2185 10.3296 83.8135 10.4943 85.3079 10.9121C87.7599 11.5952 89.236 13.3489 89.2604 15.9137C89.3061 20.6835 87.2323 26.3195 81.4896 28.3537C79.7146 28.982 77.7231 29.1741 75.8201 29.2412C71.7608 29.3815 67.6924 29.2869 63.6271 29.3296C62.4468 29.3418 61.9345 29.0674 62.3492 27.7407C62.9683 25.7614 63.3618 23.712 64.0053 21.7449C64.1364 21.3453 64.9568 20.9428 65.4661 20.9336C69.1746 20.8665 72.8831 20.897 76.5917 20.897C76.9485 20.897 77.3053 20.9153 77.6591 20.8909C78.696 20.8208 79.986 21.0404 80.1233 19.5887C80.1416 19.3813 78.5954 18.8293 77.7506 18.7744C75.2711 18.6128 72.7764 18.6981 70.2939 18.5487C64.783 18.2224 62.8555 15.1299 63.9961 9.83857C65.0147 5.10534 67.5643 1.58591 72.4989 0.259257C72.8862 0.155565 73.2918 0.0457731 73.6883 0.0427234C79.0223 0.0274745 84.3594 0.0274745 89.6935 0.0305243C89.9893 0.0305243 90.2882 0.106768 90.8463 0.183013L90.8524 0.189112Z" fill="white"/>
<path d="M110.636 29.2229C111.124 27.2558 111.554 25.4137 112.042 23.5839C114.021 16.1424 115.998 8.701 118.041 1.27787C118.175 0.789906 118.831 0.0915094 119.249 0.0884596C125.897 0.0122154 132.549 0.0366135 139.508 0.0366135C138.761 2.73261 138.096 5.24867 137.319 7.72813C137.236 7.98736 136.465 8.14594 136.013 8.15204C132.659 8.18254 129.307 8.19779 125.952 8.14594C124.54 8.1246 124.202 8.81079 124.385 10.2228H134.589C134.068 12.315 133.65 14.1631 133.137 15.9838C132.366 18.7347 132.338 18.7286 129.493 18.7347C127.41 18.7378 125.324 18.7713 123.244 18.7134C121.777 18.6707 121.362 19.363 121.609 20.8787H133.787C133.601 21.8302 133.491 22.5561 133.314 23.2667C133.079 24.1999 132.799 25.1209 132.527 26.045C131.893 28.2104 130.429 29.293 128.136 29.293C122.799 29.2961 117.465 29.3052 112.128 29.3083C111.734 29.3083 111.338 29.2656 110.636 29.2259V29.2229Z" fill="white"/>
<path d="M32.2881 29.3723C32.3582 28.6769 32.346 28.1737 32.4711 27.7071C34.8255 18.8445 37.1799 9.98188 39.6045 1.1406C39.7295 0.683139 40.4706 0.0853842 40.9342 0.0792846C46.625 0.0121898 52.3159 -0.00915859 58.0068 0.0701354C60.349 0.103683 62.6272 2.17752 62.9626 4.52585C63.7068 9.74705 60.9772 18.4023 53.9811 20.0705C51.0167 20.7781 47.8571 20.8543 44.786 20.8329C43.0324 20.8207 42.4957 21.5405 42.1541 22.9586C41.7119 24.7793 41.2331 26.5909 40.681 28.3811C40.5621 28.7715 40.0711 29.3144 39.7387 29.3266C37.3172 29.4089 34.8926 29.3692 32.2942 29.3692L32.2881 29.3723ZM45.088 12.2113C47.662 12.2113 50.0286 12.3668 52.3617 12.1503C53.6517 12.0283 54.2068 10.7169 54.1824 9.50001C54.158 8.16117 52.996 8.18861 52.0262 8.17337C50.4555 8.14897 48.8788 8.11237 47.3112 8.19776C46.8599 8.22216 46.1889 8.53934 46.0395 8.89921C45.6186 9.89953 45.4173 10.9914 45.0849 12.2113H45.088Z" fill="white"/>
<path d="M226.888 8.13983H219.684C220.209 6.02329 220.63 4.16903 221.136 2.33612C221.773 0.0243993 221.804 0.0304989 224.253 0.0274492C230.502 0.0243994 236.754 0.0182999 243.003 0.0243994C243.594 0.0243994 244.186 0.100644 245 0.155539C244.305 2.71124 243.698 5.09921 242.963 7.45058C242.856 7.78911 242.133 8.10933 241.679 8.13373C240.108 8.21607 238.529 8.20692 236.955 8.15203C235.967 8.11543 235.409 8.34111 235.125 9.43598C233.695 14.9774 232.237 20.5127 230.66 26.0145C229.623 29.6315 230.685 29.3052 226.555 29.29C225.286 29.2869 224.012 29.2686 222.746 29.3205C221.575 29.3693 221.407 28.988 221.718 27.8596C223.42 21.7052 225.027 15.5233 226.662 9.34754C226.738 9.06391 226.772 8.76808 226.888 8.13983Z" fill="white"/>
<path d="M98.0683 8.17034H90.8281C91.3008 6.22459 91.6638 4.52282 92.1334 2.8485C92.9325 0.0213664 92.9599 0.0274659 95.9822 0.0274659C102.079 0.0274659 108.175 0.0274659 114.275 0.0274659C114.818 0.0274659 115.357 0.0274659 116.172 0.0274659C115.446 2.69906 114.833 5.13278 114.083 7.52379C113.982 7.84707 113.192 8.1063 112.707 8.1307C111.085 8.20694 109.456 8.18559 107.831 8.16119C106.949 8.149 106.507 8.42957 106.26 9.3811C104.631 15.6545 102.896 21.9004 101.255 28.1707C101.023 29.0582 100.578 29.3083 99.7639 29.2991C97.8334 29.2808 95.8999 29.232 93.9724 29.3205C92.7647 29.3754 92.5848 28.9972 92.8867 27.8993C94.4025 22.3762 95.8633 16.8408 97.3333 11.3055C97.5773 10.3875 97.7724 9.4543 98.0744 8.17034H98.0683Z" fill="white"/>
<path d="M7.2127 8.19474H0C0.506261 6.1514 0.91188 4.35814 1.39679 2.58927C2.09824 0.0213686 2.12264 0.030518 4.81253 0.030518C10.9029 0.030518 16.9933 0.030518 23.0867 0.030518C23.779 0.030518 24.4713 0.030518 25.3588 0.030518C24.6513 2.62282 24.0657 4.96809 23.3368 7.26762C23.2118 7.66408 22.4951 8.0941 22.0285 8.1246C20.3084 8.23134 18.5731 8.1002 16.8561 8.23134C16.3864 8.26794 15.688 8.823 15.563 9.27131C13.8215 15.502 12.1381 21.7479 10.5034 28.006C10.2503 28.9698 9.86295 29.354 8.85042 29.3174C6.97482 29.2503 5.09311 29.2595 3.2175 29.3357C2.05554 29.3815 1.69567 29.2046 2.06164 27.8871C3.77866 21.693 5.37064 15.4623 7.00531 9.24386C7.06631 9.00903 7.09986 8.76505 7.20965 8.19169L7.2127 8.19474Z" fill="white"/>
<path d="M217.595 0.0274312C215.725 7.06934 213.932 13.8337 212.05 20.9244H220.459C219.733 23.7089 219.105 26.2036 218.4 28.68C218.324 28.9514 217.818 29.2808 217.509 29.2838C212.328 29.3021 207.143 29.2747 201.962 29.2503C201.876 29.2503 201.791 29.1497 201.556 29.0063C201.642 28.5397 201.703 28.0029 201.84 27.4845C204.145 18.817 206.475 10.1557 208.76 1.47912C209.037 0.420851 209.507 -0.0366139 210.648 0.00608279C212.865 0.0853767 215.088 0.0304809 217.592 0.0304809L217.595 0.0274312Z" fill="white"/>
<path d="M35.9692 0.0701191C35.0665 3.44926 34.24 6.56612 33.4013 9.68298C31.7422 15.8496 30.0557 22.0071 28.4424 28.1829C28.1923 29.1374 27.7653 29.357 26.8473 29.3204C25.0205 29.2503 23.1846 29.232 21.3639 29.3509C19.9579 29.4424 19.8176 28.8508 20.1256 27.7193C21.1992 23.7577 22.2422 19.7869 23.3035 15.8222C24.6119 10.9334 25.9141 6.04156 27.2621 1.16194C27.3749 0.753267 27.7928 0.131114 28.0855 0.121965C30.6504 0.0396214 33.2183 0.0731688 35.9661 0.0731688L35.9692 0.0701191Z" fill="white"/>
<path d="M195.042 29.2595C192.413 29.2869 191.181 27.4204 192.022 24.6787C192.69 22.5042 195.392 20.711 197.674 20.9275C199.412 21.0922 200.614 22.5408 200.446 24.27C200.178 27.0118 197.774 29.232 195.042 29.2595Z" fill="white"/>
</g>
<defs>
<clipPath id="clip0_151_284">
<rect width="245" height="29.3815" fill="white"/>
</clipPath>
</defs>
</svg>
